<?xml version="1.0" encoding="utf-8"?>
<!-- Generator: Adobe Illustrator 26.1.0, SVG Export Plug-In . SVG Version: 6.00 Build 0)  -->
<svg version="1.1" id="Lager_1" xmlns="http://www.w3.org/2000/svg" xmlns:xlink="http://www.w3.org/1999/xlink" x="0px" y="0px"
	 viewBox="0 0 283.46 70.87" style="enable-background:new 0 0 283.46 70.87;" xml:space="preserve">
<style type="text/css">
	.st0{fill:#3DF088;}
</style>
<g>
	<path class="st0" d="M52.37,46.03c0,6.79-1.9,12.47-5.69,17.02c-4.05,4.85-9.33,7.28-15.84,7.28c-4.74,0-8.57-1.39-11.48-4.17
		c-0.22-0.19-0.41-0.29-0.57-0.29c-0.32,0-0.61,0.6-0.88,1.79c-0.27,1.2-0.59,1.86-0.97,1.99c-0.54,0.16-5.04,0.24-13.52,0.24
		c-1.99,0-2.99-0.37-2.99-1.12c0-0.1,0.03-0.34,0.1-0.73c0.63-5.14,0.95-14.94,0.95-29.39C1.47,24.85,1,12.84,0.05,2.62L0,2.09
		c0-0.52,0.49-0.81,1.47-0.87c0.7-0.03,3.45-0.27,8.25-0.73C13.11,0.16,15.86,0,17.98,0c0.6,0,0.9,0.53,0.9,1.6
		c0,1.26-0.08,2.93-0.24,5c-0.19,2.55-0.3,4.24-0.33,5.04c-0.16,3.2-0.24,7.57-0.24,13.1c0,1,0.25,1.5,0.76,1.5
		c0.25,0,0.49-0.13,0.71-0.39c2.85-3.1,6.58-4.66,11.2-4.66c6.93,0,12.33,2.41,16.22,7.23C50.57,32.89,52.37,38.76,52.37,46.03z
		 M35.2,45.5c0-2.68-0.81-4.96-2.42-6.82c-1.61-1.86-3.72-2.79-6.31-2.79c-2.66,0-4.75,0.93-6.29,2.79c-1.53,1.86-2.3,4.16-2.3,6.91
		c0,2.85,0.74,5.14,2.23,6.89c1.58,1.84,3.73,2.76,6.45,2.76c2.69,0,4.82-0.95,6.4-2.86C34.46,50.61,35.2,48.31,35.2,45.5z"/>
	<path class="st0" d="M103.9,45.89c0,7.37-2.21,13.36-6.62,17.95c-4.41,4.59-10.21,6.89-17.39,6.89c-6.96,0-12.68-2.26-17.17-6.79
		c-4.49-4.53-6.74-10.35-6.74-17.46c0-7.5,2.15-13.59,6.45-18.26c4.3-4.67,10.12-7.01,17.46-7.01c7.15,0,12.93,2.29,17.36,6.86
		C101.68,32.64,103.9,38.58,103.9,45.89z M88.34,45.89c0-2.55-0.78-4.81-2.32-6.77c-1.55-1.96-3.56-2.93-6.02-2.93
		c-2.5,0-4.55,1-6.17,3.01c-1.52,1.88-2.28,4.11-2.28,6.69c0,2.62,0.76,4.87,2.28,6.74c1.61,2,3.67,3.01,6.17,3.01
		c2.47,0,4.51-1,6.12-3.01C87.59,50.75,88.34,48.51,88.34,45.89z"/>
	<path class="st0" d="M155.19,68.34c0,0.87-0.44,1.37-1.33,1.5c-0.89,0.13-3.19,0.19-6.93,0.19c-3.98,0-6.45-0.1-7.4-0.29
		c-0.95-0.19-1.42-0.86-1.42-1.99c0-1.52,0.05-3.82,0.14-6.89c0.09-3.07,0.14-5.38,0.14-6.94c0-1.2-0.03-2.98-0.09-5.36
		c-0.06-2.38-0.09-4.16-0.09-5.36c0-4.43-1.88-6.64-5.65-6.64c-1.23,0-2.67,0.55-4.32,1.65c-1.77,1.23-2.66,2.44-2.66,3.64v26.19
		c0,1.07-0.49,1.67-1.47,1.79c-1.11,0.13-3.37,0.19-6.78,0.19c-3.7,0-6.1-0.1-7.21-0.29c-0.98-0.16-1.47-0.69-1.47-1.6
		c0-2.52,0.02-6.32,0.05-11.4c0.03-5.08,0.05-8.89,0.05-11.45c0-8.05-0.62-14.37-1.85-18.97c-0.06-0.29-0.09-0.53-0.09-0.73
		c0-0.52,0.24-0.87,0.71-1.07c1.99-0.23,4.65-0.58,7.97-1.07c5.03-1,7.86-1.5,8.49-1.5c0.35,0,0.62,1.09,0.81,3.27
		c0.19,2.18,0.46,3.27,0.81,3.27c-0.35,0,1.35-1.12,5.1-3.37c3.75-2.25,7.03-3.37,9.84-3.37c4.02,0,7.37,0.97,10.06,2.91
		c3,2.23,4.51,5.34,4.51,9.31v15.47c0,2.1,0.02,5.25,0.05,9.43C155.17,63.1,155.19,66.24,155.19,68.34z"/>
	<path class="st0" d="M199.98,70.38c-1.08,0-2.59-0.11-4.55-0.34c-2.12-0.23-3.62-0.36-4.51-0.39c-2.06-0.06-5.33-0.1-9.82-0.1
		c-5.19,0-8.86,0.06-11.01,0.19c-0.44,0.03-1.55,0.13-3.32,0.29c-1.39,0.16-2.51,0.24-3.37,0.24c-0.57,0-0.85-0.4-0.85-1.21
		c-0.03-0.81-0.03-1.89,0-3.25c0.06-1.58,0.09-2.65,0.09-3.2c0-0.61-0.1-1.52-0.31-2.72c-0.21-1.2-0.31-2.07-0.31-2.62
		c0-0.42,0.24-0.84,0.71-1.26c6.45-5.63,12.37-11.38,17.74-17.27c-0.73,0-1.83-0.03-3.32-0.1c-1.49-0.06-2.61-0.1-3.37-0.1
		c-1.14,0-2.87,0.06-5.19,0.17c-2.32,0.11-4.06,0.17-5.19,0.17c-0.54,0-0.81-0.19-0.81-0.58c0-0.74,0.49-2.92,1.47-6.52
		c0.98-3.6,1.47-6.28,1.47-8.03c0-0.55,0.55-0.82,1.66-0.82c0.09,0,1.98,0.21,5.65,0.63c3.04,0.32,7.15,0.48,12.33,0.48
		c1.71,0,4.26-0.03,7.66-0.1c3.4-0.06,5.95-0.1,7.66-0.1c1.04,0,1.57,0.45,1.57,1.36V35.7c0,1.1-6.02,7.65-18.07,19.64
		c9.3,0,15.62-0.32,18.97-0.97c0.28-0.06,0.49-0.1,0.62-0.1c0.44,0,0.66,0.18,0.66,0.53c0-0.52-0.66,2.04-1.99,7.66
		c-0.22,1.55-0.6,3.85-1.14,6.89C200.96,70.04,200.58,70.38,199.98,70.38z"/>
	<path class="st0" d="M257.15,45.5c0,2.49,0.14,6.19,0.43,11.11c0.28,4.92,0.43,8.6,0.43,11.06c0,1.29-0.55,1.99-1.66,2.09
		c-3.92,0.29-8.41,0.44-13.47,0.44c-0.6,0-1-0.93-1.21-2.79c-0.21-1.86-0.45-2.8-0.74-2.84c-0.25,0.13-0.59,0.4-1,0.82
		c-3.54,3.65-7.34,5.48-11.39,5.48c-6.17,0-11.27-2.49-15.32-7.47c-3.83-4.66-5.74-10.22-5.74-16.69c0-7.47,1.98-13.48,5.93-18.04
		c4.11-4.72,9.74-7.08,16.89-7.08c4.96,0,8.89,1.78,11.76,5.34c0.13,0.16,0.24,0.24,0.33,0.24c0.28,0,0.61-0.78,0.97-2.35
		c0.36-1.57,0.8-2.35,1.31-2.35c1.17,0,3.4,0.34,6.69,1.02c3.13,0.65,5.38,1.2,6.74,1.65c0.47,0.19,0.71,0.45,0.71,0.78
		c0,0.13-0.05,0.47-0.14,1.02C257.66,32.77,257.15,38.97,257.15,45.5z M241.88,45.79c0-2.75-0.85-5.02-2.54-6.81
		c-1.69-1.8-3.9-2.69-6.62-2.69c-2.72,0-4.92,0.89-6.59,2.67c-1.68,1.78-2.51,4.06-2.51,6.84c0,2.62,0.88,4.87,2.66,6.74
		c1.77,1.88,3.92,2.81,6.45,2.81c2.69,0,4.89-0.9,6.59-2.69C241.02,50.86,241.88,48.57,241.88,45.79z"/>
	<path class="st0" d="M282.23,47.49c0,2.36,0.05,5.88,0.14,10.55c0.1,4.67,0.14,8.17,0.14,10.5c0,0.68-0.4,1.08-1.19,1.21
		c-1.08,0.19-3.49,0.29-7.26,0.29c-3.8,0-6.23-0.1-7.31-0.29c-0.7-0.13-1.12-0.34-1.28-0.63c-0.06-0.13-0.09-0.61-0.09-1.46
		c0-2.23,0.05-5.59,0.14-10.06c0.09-4.48,0.14-7.85,0.14-10.11c0-9.18-0.35-16.49-1.04-21.92c-0.06-0.52-0.1-0.86-0.1-1.02
		c0-0.65,0.43-0.97,1.28-0.97c0.89,0,2.24,0.1,4.06,0.29c1.82,0.19,3.19,0.29,4.1,0.29c0.92,0,2.29-0.08,4.13-0.24
		c1.83-0.16,3.21-0.24,4.13-0.24c0.76,0,1.14,0.32,1.14,0.97c0,0.13-0.03,0.44-0.09,0.92C282.58,31.87,282.23,39.18,282.23,47.49z
		 M283.46,11.45c0,5.63-3.1,8.44-9.3,8.44c-2.66,0-4.86-0.71-6.59-2.13c-1.9-1.55-2.85-3.65-2.85-6.31c0-2.52,0.98-4.59,2.94-6.21
		c1.8-1.49,3.97-2.23,6.5-2.23c2.47,0,4.6,0.76,6.4,2.28C282.5,6.9,283.46,8.96,283.46,11.45z"/>
</g>
</svg>
